


       Svinalängorna.2010.DVDRip.XViD.Nordic+Eng.avi-Zen_Bud
	                   aka: Beyond (2010)

Format                           : AVI
Format/Info                      : Audio Video Interleave
Format profile                   : OpenDML
File size                        : 1.39 GiB
Duration                         : 1h 35mn
Overall bit rate mode            : Variable
Overall bit rate                 : 2 093 Kbps
Writing application              : Lavf53.15.0

Video
ID                               : 0
Format                           : MPEG-4 Visual
Format profile                   : Advanced Simple@L5
Format settings, BVOP            : 4
Format settings, QPel            : No
Format settings, GMC             : No warppoints
Format settings, Matrix          : Default (H.263)
Muxing mode                      : Packed bitstream
Codec ID                         : XVID
Duration                         : 1h 35mn
Bit rate                         : 1 950 Kbps
Width                            : 720 pixels
Height                           : 576 pixels
Display aspect ratio             : 16:9
Frame rate                       : 25.000 fps
Standard                         : PAL
Stream size                      : 1.30 GiB (93%)
Writing library                  : XviD 64

Audio
ID                               : 1
Format                           : MPEG Audio
Format version                   : Version 1
Format profile                   : Layer 3
Codec ID                         : 55
Codec ID/Hint                    : MP3
Duration                         : 1h 35mn
Bit rate mode                    : Variable
Bit rate                         : 128 Kbps
Channel(s)                       : 2 channels
Sampling rate                    : 48.0 KHz
Compression mode                 : Lossy
Stream size                      : 28.0 MiB (2%)
Alignment                        : Aligned on interleaves
Interleave, duration             : 75 ms (1.87 video frames)
Writing library                  : LAME3.98.4


General
Complete name                    : Svinalängorna.2010_track3_swe.sub
Format                           : MPEG-PS
File size                        : 2.75 MiB

General
Complete name                    : Svinalängorna.2010_track4_dan.sub
Format                           : MPEG-PS
File size                        : 2.74 MiB

General
Complete name                    : Svinalängorna.2010_track5_nor.sub
Format                           : MPEG-PS
File size                        : 2.42 MiB

General
Complete name                    : Svinalängorna.2010_track6_fin.sub
Format                           : MPEG-PS
File size                        : 2.39 MiB

General
Complete name                    : Svinalängorna.2010_track7_eng.sub
Format                           : MPEG-PS
File size                        : 2.52 MiB

=====================================================================================

A drama set in 1970s Sweden and centered on a young woman's experiences growing 
up in a home riddled with abuse and alcoholism.

=====================================================================================



